<?xml version="1.0" encoding="utf-8"?>
<!DOCTYPE svg PUBLIC "-//W3C//DTD SVG 1.1//EN" "http://www.w3.org/Graphics/SVG/1.1/DTD/svg11.dtd">

<svg version="1.1" xmlns="http://www.w3.org/2000/svg" xmlns:xlink="http://www.w3.org/1999/xlink">

	<symbol id="icon-save" viewBox="0 0 32 32">
		<path class="path1" d="M29.894 18.237l-5.037-11.987c-0.397-0.8-1.453-1.454-2.347-1.454h-3.278l0.608 6.504h4.32l-8.16 6.768-8.16-6.768h4.32l0.608-6.502h-3.277c-0.893 0-1.949 0.654-2.347 1.454l-5.037 11.987c-0.4 0.8-0.605 2.176-0.459 3.059l1.088 5.898c0.147 0.882 0.997 1.603 1.89 1.603h22.75c0.894 0 1.744-0.722 1.891-1.603l1.088-5.898c0.144-0.883-0.061-2.261-0.461-3.061zM27.712 22.438l-0.413 2.403c-0.125 0.923-0.957 1.678-1.846 1.678h-18.906c-0.891 0-1.723-0.755-1.846-1.678l-0.414-2.403c-0.123-0.923 0.506-1.678 1.397-1.678h20.634c0.893 0.002 1.52 0.755 1.395 1.678z"></path>
	</symbol>

	<symbol id="icon-preview" viewBox="-4 -4 40 40">
		<path class="path1" d="M30 32h-22q-0.844 0-1.422-0.578t-0.578-1.422v-2.531q-2.656-0.969-4.328-3.281t-1.672-5.219 1.672-5.219 4.328-3.25v-8.5q0-0.813 0.578-1.406t1.422-0.594h12v11q0 0.406 0.297 0.703t0.703 0.297h10.969l0.031 0.031v17.969q0 0.813-0.594 1.406t-1.406 0.594zM19.75 27.156l-4.719-4.688q0.969-1.656 0.969-3.5 0-2.875-2.047-4.938t-4.953-2.063-4.953 2.047-2.047 4.953 2.047 4.953 4.953 2.047q1.813 0 3.5-0.969l4.688 4.719q0.25 0.25 0.625 0.25t0.656-0.25l1.281-1.281q0.25-0.25 0.25-0.625t-0.25-0.656zM9 23.969q-2.063 0-3.531-1.453t-1.469-3.531 1.469-3.547 3.531-1.469 3.531 1.469 1.469 3.547-1.469 3.531-3.531 1.453zM22-0.031q0.813 0.031 1.375 0.594l8.031 8.031q0.594 0.594 0.563 1.406h-9.969v-10.031z"></path>
	</symbol>

	<symbol id="icon-add" viewBox="0 0 32 32">
		<path class="path1" d="M21.714 17.143v-2.286q0-0.464-0.339-0.804t-0.804-0.339h-4.571v-4.571q0-0.464-0.339-0.804t-0.804-0.339h-2.286q-0.464 0-0.804 0.339t-0.339 0.804v4.571h-4.571q-0.464 0-0.804 0.339t-0.339 0.804v2.286q0 0.464 0.339 0.804t0.804 0.339h4.571v4.571q0 0.464 0.339 0.804t0.804 0.339h2.286q0.464 0 0.804-0.339t0.339-0.804v-4.571h4.571q0.464 0 0.804-0.339t0.339-0.804zM27.429 16q0 3.732-1.839 6.884t-4.991 4.991-6.884 1.839-6.884-1.839-4.991-4.991-1.839-6.884 1.839-6.884 4.991-4.991 6.884-1.839 6.884 1.839 4.991 4.991 1.839 6.884z"></path>
	</symbol>

	<symbol id="icon-file" viewBox="-6 0 35 32">
		<path class="path1" d="M22.857 13.714v14.286q0 0.714-0.5 1.214t-1.214 0.5h-19.429q-0.714 0-1.214-0.5t-0.5-1.214v-24q0-0.714 0.5-1.214t1.214-0.5h9.714v9.714q0 0.714 0.5 1.214t1.214 0.5h9.714zM22.804 11.429h-9.089v-9.089q1.464 0.268 2.357 1.161l5.571 5.571q0.893 0.893 1.161 2.357z"></path>
	</symbol>

	<symbol id="icon-reload" viewBox="0 0 1024 1024">
		<path class="path1" d="M320 640v-192h192l-256-256-256 256h192v320h384l-128-128zM832 576v-320h-384l128 128h128v192h-192l256 256 256-256z"></path>
	</symbol>

	<symbol id="icon-run" viewBox="0 0 1024 1024">
		<path class="path1" d="M512 0c-282.752 0-512 229.248-512 512s229.248 512 512 512 512-229.248 512-512-229.248-512-512-512zM320 768v-512l512.256 256-512.256 256z"/>
	</symbol>

	<symbol id="icon-export" viewBox="0 0 1024 1024">
		<path class="path1" d="M868.762 256c0-51.2-50.944-51.2-50.944-51.2h-611.635c0 0-50.944 0-50.944 51.2v51.2h713.523v-51.2zM715.827 102.4h-407.706c0 0-50.944 0-50.944 51.2h509.645c0-51.2-50.995-51.2-50.995-51.2zM970.65 307.2c-30.157-30.31-30.157-30.31-30.157-30.31l0 81.51h-857.037v-81.51c0 0 0 0-30.157 30.31s-51.763 38.451-39.578 102.451c12.032 63.744 70.554 413.44 79.206 460.749 9.574 51.917 62.31 51.2 62.31 51.2h713.523c0 0 52.736 0.717 62.31-51.2 8.704-47.309 67.174-397.005 79.258-460.749 12.134-64-9.472-72.141-39.68-102.451zM715.827 583.68c0 0 0 51.2-50.995 51.2h-305.715c-50.944 0-50.944-51.2-50.944-51.2v-102.4h71.373v81.92h264.858v-81.92h71.475l0 102.4z"></path>
	</symbol>

	<symbol id="icon-config" viewBox="0 0 1100 1024">
		<path class="path1" d="M0 564v-105.714q0-5.714 4-11.143t9.143-6l88.571-13.714q6.286-20 18.286-43.429-19.429-27.429-51.429-65.714-4-6.286-4-11.429 0-6.857 4-11.429 12.571-17.143 46.857-50.857t45.143-33.714q6.286 0 12 4l65.714 51.429q19.429-10.286 44-18.286 6.286-61.714 13.143-88 4-13.714 17.143-13.714h106.286q6.286 0 11.429 4.286t5.714 10l13.143 87.429q19.429 5.714 42.857 17.714l67.429-50.857q4.571-4 11.429-4 6.286 0 12 4.571 82.286 76 82.286 91.429 0 5.143-4 10.857-6.857 9.143-24 30.857t-25.714 34.286q13.143 27.429 19.429 46.857l86.857 13.143q5.714 1.143 9.714 6t4 11.143v105.714q0 5.714-4 11.143t-9.143 6l-88.571 13.714q-6.286 20-18.286 43.429 19.429 27.429 51.429 65.714 4 5.714 4 11.429 0 6.857-4 10.857-13.143 17.143-47.143 51.143t-44.857 34q-6.286 0-12-4l-65.714-51.429q-21.143 10.857-44 17.714-6.286 61.714-13.143 88.571-4 13.714-17.143 13.714h-106.286q-6.286 0-11.429-4.286t-5.714-10l-13.143-87.429q-19.429-5.714-42.857-17.714l-67.429 50.857q-4 4-11.429 4-6.286 0-12-4.571-82.286-76-82.286-91.429 0-5.143 4-10.857 5.714-8 23.429-30.286t26.857-34.857q-13.143-25.143-20-46.857l-86.857-13.714q-5.714-0.571-9.714-5.429t-4-11.143zM219.429 512q0 60.571 42.857 103.429t103.429 42.857 103.429-42.857 42.857-103.429-42.857-103.429-103.429-42.857-103.429 42.857-42.857 103.429zM658.286 844.571v-80q0-9.143 85.143-17.714 7.429-16.571 17.143-29.714-29.143-64.571-29.143-78.857 0-2.286 2.286-4 2.286-1.143 20-11.429t33.714-19.429 17.143-9.143q4.571 0 26.286 26.571t29.714 38.571q11.429-1.143 17.143-1.143t17.143 1.143q29.143-40.571 52.571-64l3.429-1.143q2.286 0 70.857 40 2.286 1.714 2.286 4 0 14.286-29.143 78.857 9.714 13.143 17.143 29.714 85.143 8.571 85.143 17.714v80q0 9.143-85.143 17.714-6.857 15.429-17.143 29.714 29.143 64.571 29.143 78.857 0 2.286-2.286 4-69.714 40.571-70.857 40.571-4.571 0-26.286-26.857t-29.714-38.857q-11.429 1.143-17.143 1.143t-17.143-1.143q-8 12-29.714 38.857t-26.286 26.857q-1.143 0-70.857-40.571-2.286-1.714-2.286-4 0-14.286 29.143-78.857-10.286-14.286-17.143-29.714-85.143-8.571-85.143-17.714zM658.286 259.429v-80q0-9.143 85.143-17.714 7.429-16.571 17.143-29.714-29.143-64.571-29.143-78.857 0-2.286 2.286-4 2.286-1.143 20-11.429t33.714-19.429 17.143-9.143q4.571 0 26.286 26.571t29.714 38.571q11.429-1.143 17.143-1.143t17.143 1.143q29.143-40.571 52.571-64l3.429-1.143q2.286 0 70.857 40 2.286 1.714 2.286 4 0 14.286-29.143 78.857 9.714 13.143 17.143 29.714 85.143 8.571 85.143 17.714v80q0 9.143-85.143 17.714-6.857 15.429-17.143 29.714 29.143 64.571 29.143 78.857 0 2.286-2.286 4-69.714 40.571-70.857 40.571-4.571 0-26.286-26.857t-29.714-38.857q-11.429 1.143-17.143 1.143t-17.143-1.143q-8 12-29.714 38.857t-26.286 26.857q-1.143 0-70.857-40.571-2.286-1.714-2.286-4 0-14.286 29.143-78.857-10.286-14.286-17.143-29.714-85.143-8.571-85.143-17.714zM804.571 804.571q0 30.286 21.429 51.714t51.714 21.429 51.714-21.429 21.429-51.714q0-29.714-21.714-51.429t-51.429-21.714-51.429 21.714-21.714 51.429zM804.571 219.429q0 30.286 21.429 51.714t51.714 21.429 51.714-21.429 21.429-51.714q0-29.714-21.714-51.429t-51.429-21.714-51.429 21.714-21.714 51.429z"/>
	</symbol>

	<symbol id="icon-off" viewBox="0 0 512 512">
		<path class="path1" d="M438.857 221.714q0-44.572-17.428-85.143t-46.857-70-70-46.857-85.143-17.428-85.143 17.428-70 46.857-46.857 70-17.428 85.143q0 52 23 98t64.715 77.143q12.285 9.143 27.285 7.143t23.857-14.286q9.143-12 7-27t-14.143-24.143q-28-21.143-43.285-51.714t-15.285-65.143q0-29.714 11.572-56.714t31.285-46.714 46.715-31.286 56.714-11.572 56.714 11.572 46.714 31.286 31.286 46.714 11.572 56.714q0 34.572-15.286 65.143t-43.286 51.715q-12 9.143-14.143 24.143t7 27q8.857 12.285 24 14.285t27.143-7.143q41.714-31.143 64.714-77.143t23-98zM256 441.143v-182.857q0-14.857-10.857-25.714t-25.715-10.857-25.714 10.857-10.857 25.714v182.857q0 14.857 10.857 25.715t25.714 10.857 25.714-10.857 10.857-25.715z" />
	</symbol>

	<symbol id="icon-key" viewBox="0 0 512 512">
		<path class="path1" d="M501.066 322.879l-50.553 50.552c-12.396 12.397-32.685 32.684-45.081 45.082l-50.553 50.552c-12.396 12.397-34.477 14.583-49.065 4.858l-138.219-92.146c-14.588-9.726-20.109-30.514-12.268-46.195l35.243-70.487c1.077-2.153 2.323-4.448 3.695-6.83l-178.265-178.265-16-112h96v32h64v64h64v64h64v35.593c3.198-1.906 6.267-3.608 9.096-5.022l70.485-35.244c15.683-7.841 36.47-2.319 46.195 12.269l92.147 138.22c9.727 14.586 7.539 36.665-4.857 49.063zM75.314 52.687l-22.627 22.627 155.786 155.785 22.627-22.627-155.786-155.785zM458.51 268.118l-22.628-22.628c-6.223-6.222-16.404-6.222-22.627 0l-135.765 135.765c-6.223 6.222-6.223 16.405 0 22.627l22.628 22.628c6.223 6.222 16.404 6.222 22.627 0l135.765-135.765c6.223-6.222 6.223-16.405 0-22.627z" />
	</symbol>

	<symbol id="icon-bug" viewBox="0 0 951 1024">
		<path class="path1" d="M932.571 548.571q0 14.857-10.857 25.714t-25.714 10.857h-128q0 97.714-38.286 165.714l118.857 119.429q10.857 10.857 10.857 25.714t-10.857 25.714q-10.286 10.857-25.714 10.857t-25.714-10.857l-113.143-112.571q-2.857 2.857-8.571 7.429t-24 16.286-37.143 20.857-46.857 16.571-55.429 7.429v-512h-73.143v512q-29.143 0-58-7.714t-49.714-18.857-37.714-22.286-24.857-18.571l-8.571-8-104.571 118.286q-11.429 12-27.429 12-13.714 0-24.571-9.143-10.857-10.286-11.714-25.429t8.857-26.571l115.429-129.714q-33.143-65.143-33.143-156.571h-128q-14.857 0-25.714-10.857t-10.857-25.714 10.857-25.714 25.714-10.857h128v-168l-98.857-98.857q-10.857-10.857-10.857-25.714t10.857-25.714 25.714-10.857 25.714 10.857l98.857 98.857h482.286l98.857-98.857q10.857-10.857 25.714-10.857t25.714 10.857 10.857 25.714-10.857 25.714l-98.857 98.857v168h128q14.857 0 25.714 10.857t10.857 25.714zM658.286 219.429h-365.714q0-76 53.429-129.429t129.429-53.429 129.429 53.429 53.429 129.429z"></path>
	</symbol>

	<symbol id="icon-feature" viewBox="0 0 1024 1024">
		<path class="path1" d="M512 42.667l-384 170.667v256c0 237.013 163.627 458.027 384 512 220.373-53.973 384-274.987 384-512v-256l-384-170.667zM426.667 725.333l-170.667-170.667 60.373-60.373 110.293 110.293 280.96-280.96 60.373 60.373-341.333 341.333z"></path>
	</symbol>

	<symbol id="icon-user" viewBox="0 0 1024 1024">
		<path class="path1" d="M0 1024v-96c0-143.488 180.768-197.728 419.168-219.584-52.352-32.448-93.44-123.648-114.848-196.48-0.096 0-0.192 0.064-0.32 0.064-2.176 0-48-57.312-48-128 0-62.016-4.416-113.728 32.224-125.44-0.032-0.864-0.224-1.696-0.224-2.56 0-78.624 40.672-147.52 101.984-187.488 15.84-39.52 64.128-68.512 122.016-68.512s106.176 28.992 122.016 68.512c61.312 39.968 101.984 108.864 101.984 187.488 0 0.864-0.192 1.696-0.224 2.56 36.64 11.712 32.224 63.424 32.224 125.44 0 70.688-50.816 128-48 128-0.128 0-0.224-0.064-0.32-0.064-21.408 72.8-62.496 164.032-114.848 196.48 238.4 21.856 419.168 74.080 419.168 219.584v96h-1024z"></path>
	</symbol>

	<symbol id="icon-delete" viewBox="0 0 1024 1024">
		<path class="path1" d="M128 320v640c0 35.2 28.8 64 64 64h576c35.2 0 64-28.8 64-64v-640h-704zM320 896h-64v-448h64v448zM448 896h-64v-448h64v448zM576 896h-64v-448h64v448zM704 896h-64v-448h64v448z"></path>
		<path class="path2" d="M848 128h-208v-80c0-26.4-21.6-48-48-48h-224c-26.4 0-48 21.6-48 48v80h-208c-26.4 0-48 21.6-48 48v80h832v-80c0-26.4-21.6-48-48-48zM576 128h-192v-63.198h192v63.198z"></path>
	</symbol>

	<symbol id="icon-close" viewBox="0 0 1024 1024">
		<path class="path1" d="M1014.662 822.66c-0.004-0.004-0.008-0.008-0.012-0.010l-310.644-310.65 310.644-310.65c0.004-0.004 0.008-0.006 0.012-0.010 3.344-3.346 5.762-7.254 7.312-11.416 4.246-11.376 1.824-24.682-7.324-33.83l-146.746-146.746c-9.148-9.146-22.45-11.566-33.828-7.32-4.16 1.55-8.070 3.968-11.418 7.31 0 0.004-0.004 0.006-0.008 0.010l-310.648 310.652-310.648-310.65c-0.004-0.004-0.006-0.006-0.010-0.010-3.346-3.342-7.254-5.76-11.414-7.31-11.38-4.248-24.682-1.826-33.83 7.32l-146.748 146.748c-9.148 9.148-11.568 22.452-7.322 33.828 1.552 4.16 3.97 8.072 7.312 11.416 0.004 0.002 0.006 0.006 0.010 0.010l310.65 310.648-310.65 310.652c-0.002 0.004-0.006 0.006-0.008 0.010-3.342 3.346-5.76 7.254-7.314 11.414-4.248 11.376-1.826 24.682 7.322 33.83l146.748 146.746c9.15 9.148 22.452 11.568 33.83 7.322 4.16-1.552 8.070-3.97 11.416-7.312 0.002-0.004 0.006-0.006 0.010-0.010l310.648-310.65 310.648 310.65c0.004 0.002 0.008 0.006 0.012 0.008 3.348 3.344 7.254 5.762 11.414 7.314 11.378 4.246 24.684 1.826 33.828-7.322l146.746-146.748c9.148-9.148 11.57-22.454 7.324-33.83-1.552-4.16-3.97-8.068-7.314-11.414z"></path>
	</symbol>

	<symbol id="icon-file-txt" viewBox="0 0 100 100">
		<path class="path1" d="M65.164,11.126H26.033c-2.627,0-4.767,2.141-4.767,4.768v68.213c0,2.63,2.14,4.768,4.767,4.768h47.932 c2.63,0,4.768-2.138,4.768-4.768V25.869L65.164,11.126z M66.289,18.261l5.948,6.463h-5.948V18.261z M74.729,84.106 c0,0.421-0.344,0.765-0.765,0.765H26.033c-0.421,0-0.763-0.344-0.763-0.765V15.894c0-0.421,0.342-0.762,0.763-0.762h36.251v11.595	c0,1.104,0.899,1.999,2.003,1.999h10.442V84.106z M32.333,32.421h34c0.828,0,1.5,0.672,1.5,1.5s-0.672,1.5-1.5,1.5h-34 c-0.828,0-1.5-0.672-1.5-1.5S31.505,32.421,32.333,32.421z M67.833,44.001c0,0.828-0.672,1.5-1.5,1.5h-34 c-0.828,0-1.5-0.672-1.5-1.5s0.672-1.5,1.5-1.5h34C67.161,42.501,67.833,43.173,67.833,44.001z M67.833,53.751 c0,0.828-0.672,1.5-1.5,1.5h-34c-0.828,0-1.5-0.672-1.5-1.5s0.672-1.5,1.5-1.5h34C67.161,52.251,67.833,52.923,67.833,53.751z M67.833,63.667c0,0.828-0.672,1.5-1.5,1.5h-34c-0.828,0-1.5-0.672-1.5-1.5s0.672-1.5,1.5-1.5h34 C67.161,62.167,67.833,62.839,67.833,63.667z"/>
	</symbol>

	<symbol id="icon-folder" viewBox="10 0 216 146">
		<path d="M170.408,41.876c-3.584-3.585-7.875-5.377-12.873-5.377h-54.75v-2.607c0-4.997-1.793-9.288-5.377-12.872 c-3.585-3.585-7.876-5.378-12.873-5.378H58.464c-4.998,0-9.289,1.793-12.873,5.378c-3.585,3.584-5.377,7.875-5.377,12.872v78.215 c0,4.996,1.792,9.287,5.377,12.871c3.585,3.586,7.876,5.379,12.873,5.379h99.071c4.998,0,9.289-1.793,12.873-5.379 c3.586-3.584,5.377-7.875,5.377-12.871V54.75C175.785,49.753,173.994,45.462,170.408,41.876z"/>
	</symbol>

	<symbol id="icon-folder-open" viewBox="0 0 216 146">
		<path d="M72.763,71.655c5.594-2.579,10.945-3.869,16.05-3.869H156.6V54.75c0-4.997-1.793-9.29-5.379-12.875 c-3.585-3.585-7.875-5.377-12.873-5.377H94.027v-2.607c0-4.997-1.792-9.288-5.377-12.872c-3.585-3.585-7.876-5.378-12.873-5.378 H49.706c-4.997,0-9.288,1.793-12.873,5.378c-3.585,3.584-5.377,7.875-5.377,12.872v78.214c0,0.218,0.014,0.558,0.041,1.02 c0.027,0.461,0.041,0.801,0.041,1.018l0.407-0.487l27.457-32.265C62.715,77.48,67.169,74.234,72.763,71.655z"/>
		<path d="M182.385,79.273c-1.439-0.707-3.082-1.061-4.929-1.061H88.813c-3.585,0-7.482,0.965-11.691,2.893 c-4.209,1.93-7.482,4.277-9.817,7.049L39.93,120.417c-1.684,1.901-2.526,3.694-2.526,5.378c0,1.629,0.72,2.797,2.159,3.503 s3.082,1.06,4.929,1.06h88.645c3.584,0,7.48-0.965,11.69-2.893c4.209-1.928,7.481-4.277,9.817-7.048l27.375-32.263 c1.683-1.901,2.524-3.693,2.524-5.379C184.544,81.146,183.825,79.979,182.385,79.273z"/>
	</symbol>

	<symbol id="icon-file-xml" viewBox="0 0 126 126">
		<path d="M99.979,36.442c-0.004-0.468-0.154-0.929-0.475-1.295L79.838,12.682c-0.006-0.005-0.012-0.008-0.016-0.013 c-0.117-0.132-0.254-0.239-0.398-0.334c-0.043-0.028-0.086-0.054-0.131-0.078c-0.125-0.069-0.258-0.124-0.395-0.165 c-0.037-0.011-0.07-0.027-0.107-0.035C78.643,12.021,78.488,12,78.332,12H30c-2.207,0-4,1.794-4,4v94c0,2.205,1.793,4,4,4h66 c2.205,0,4-1.795,4-4V36.666C100,36.591,99.988,36.517,99.979,36.442z M44.871,106.545l-1.977-3.95 c-0.809-1.521-1.326-2.653-1.941-3.917h-0.064c-0.453,1.264-1.004,2.396-1.684,3.917l-1.813,3.95h-5.631l6.311-11.039 l-6.084-10.778h5.664l1.908,3.981c0.648,1.328,1.133,2.396,1.652,3.625h0.064c0.518-1.391,0.938-2.361,1.488-3.625l1.846-3.981 h5.631l-6.15,10.65l6.475,11.167H44.871z M71.998,106.545l-0.324-8.352c-0.098-2.622-0.195-5.794-0.195-8.967h-0.096 c-0.68,2.785-1.586,5.892-2.428,8.449l-2.654,8.513h-3.854l-2.33-8.448c-0.711-2.557-1.455-5.664-1.975-8.514h-0.064 c-0.129,2.946-0.227,6.313-0.389,9.031l-0.387,8.287h-4.564l1.393-21.817h6.57l2.137,7.284c0.68,2.523,1.359,5.242,1.844,7.799 h0.098c0.615-2.523,1.359-5.404,2.072-7.832l2.33-7.251h6.441l1.197,21.817H71.998z M94.238,106.545H80.609V84.728h4.953v17.675 h8.676V106.545z M96,79.916H30V16h46.332v20.465c0,1.104,0.896,2,2,2H96V79.916z"/>
		<polygon points="33.866,55.497 45.41,60.86 45.41,58.311 36.68,54.487 36.68,54.438 45.41,50.614 45.41,48.065 33.866,53.428 	"/>
		<polygon points="81.783,50.614 90.707,54.438 90.707,54.487 81.783,58.311 81.783,60.86 93.327,55.569 93.327,53.356 81.783,48.065 "/>
		<path d="M63.367,40.688c-7.607,0-13.774,6.167-13.774,13.774s6.167,13.774,13.774,13.774s13.773-6.167,13.773-13.774 S70.975,40.688,63.367,40.688z M68.544,46.155l0.985-0.659c0,0-0.414-1.061-0.344-1.581c0.239-0.116,1.209,0.393,2.029,1.256 c-0.552,2.054-1.847,1.809-1.847,1.809S68.42,46.957,68.544,46.155z M60.241,58.283c-0.061,0.308-0.432,1.049-0.678,1.541 c-0.246,0.493-0.369,0.679-0.679,0.925c-0.309,0.25-0.492,0.679-0.492,0.679l-0.062,1.047c0,0,0.121,0.865,0.306,1.174 c0.185,0.306-0.66,2.143-0.66,2.143c-0.536-0.106-0.834-0.728-1.02-1.218c-0.186-0.495-0.431-0.757-0.369-1.311 c0.062-0.555-0.479-0.848-0.662-1.156c-0.184-0.312-0.432-0.741-0.432-1.049c0-0.309-0.677-0.741-0.677-0.741 s-1.234-0.555-1.419-0.8c-0.185-0.247-0.372-1.298-0.432-1.727c-0.063-0.43,0.184-1.54,0.184-1.54s0.498-0.374,0.185-0.679 c-0.309-0.308-0.368-1.112-0.368-1.112l-0.556-0.615c0,0-0.433-0.617-0.494-0.926c-0.062-0.308,0-0.493,0.062-0.802 c0.061-0.31-0.123-0.863-0.123-1.17c2.304-5.649,6.167-6.967,6.167-6.967l0.309,1.292c0,0-0.678,0.186-1.046,0.064 c-0.372-0.124-0.559-0.124-0.559-0.124l-0.491,0.677c0,0-0.188,0.433-0.249,0.68c-0.061,0.247,0.123,0.615,0.123,0.615 s0.862,0.062,0.862-0.184c0-0.247-0.121-0.37-0.121-0.37l-0.124-0.432c0,0,0.559-0.309,2.034-0.187 c1.48,0.125,0.927,1.172,1.545,1.421c0.617,0.247-0.496,1.109-0.742,1.601c-0.246,0.494-0.616-0.617-0.616-0.617 s0.37-0.427-0.246-0.554c-0.617-0.121-1.025,1.11-0.713,1.05c0.307-0.061,0.651,0.332,0.588,0.639 c-0.062,0.309-0.062,0.285-0.37,0.962c-0.308,0.678-0.978,1.18-0.978,1.18s-0.315-0.192-0.133,0.179 c0.189,0.369-0.061,1.232-0.061,1.479c0,0.245-0.74-0.432-0.861-1.05c-0.126-0.613-0.848-0.079-1.094-0.016 c-0.247,0.063-0.697-0.107-0.816-0.413c-0.126-0.31-1.237,0.615-1.546,0.799c-0.307,0.186-0.182,0.68,0.309,0.433 c0.493-0.247,0.924-0.062,0.802,0.434c-0.122,0.49-0.614,0.185-0.554,0.49c0.061,0.308,0.554,0.617,0.676,1.05 c0.124,0.43,1.298,0.062,1.667-0.124c0.369-0.187,1.418-0.37,1.54,0.124c0.128,0.494,1.297,0.676,1.728,0.798 c0.433,0.124,1.296,0.186,1.791,0.679C61.167,57.049,60.306,57.974,60.241,58.283z M63.016,43.853 c-0.063,0.618-1.047,1.418-0.924,1.667c0.124,0.249,0,1.303-0.863,0.377c-0.864-0.925-1.729-1.239-1.665-1.858 c0.015-0.123,0.893-0.316,0.907-0.532c1.308-1.216,3.396-0.966,3.556-0.678C63.653,43.44,63.078,43.236,63.016,43.853z M73.731,47.994c0.833,1.431,2.052,5.247,1.602,5.929c-0.271-0.122-0.498-0.224-0.498-0.224H73.19l0.985,1.153 c0,0,0.477,0.7,1.153,0.655c-0.445,5.157-4.749,8.469-4.749,8.469c-0.657-0.658-0.328-1.231-0.328-1.231l0.185-0.989l0.104-1.664 c0,0,0-1.725-1.646-0.906c-1.767,0.451-1.03,0.451-2.815,0.575c-1.788,0.124-1.492-3.646-1.492-3.646 c0-5.643,4.327-1.384,4.327-1.384c2.469,1.642,2.798-1.362,2.798-1.362l1.808-0.655l0.164-0.824l-0.263-1.149l-2.627-1.084 c0,0-0.253,0.854,0.421,1.903c0,0-0.225,1.192-0.778,0.884l-1.522-0.765c0,0-0.512-0.222-1.334,0.273 c-0.824,0.492-2.217-0.024-2.217-0.024s0.112-0.827,0.978-1.256l0.707-0.467c0,0-0.185-0.844-0.023-1.501 c0.162-0.657,0.452-0.082,1.109-0.576c0.657-0.491,1.11,0.966,2.096,0.802c0.985-0.165,0.494-0.329,1.153-0.657 c0.659-0.329,1.151,0.657,1.151,0.657l1.313,0.164C73.848,49.095,73.643,47.609,73.731,47.994z"/>
	</symbol>

	<symbol id="icon-file-php" viewBox="0 0 26 26">
		<path d="M18.163,11.281c-0.237,0-0.398,0.022-0.483,0.047v1.523c0.101,0.022,0.223,0.03,0.391,0.03 c0.621,0,1.004-0.313,1.004-0.842C19.074,11.565,18.745,11.281,18.163,11.281z"/>
		<path d="M20.26,4.914H6.153c-0.57,0-1.033,0.462-1.033,1.032v14.108c0,0.568,0.462,1.031,1.033,1.031H20.26 c0.57,0,1.032-0.463,1.032-1.031V5.946C21.292,5.376,20.83,4.914,20.26,4.914z M10.024,13.234 c-0.398,0.375-0.988,0.543-1.677,0.543c-0.153,0-0.291-0.008-0.398-0.023V15.6H6.793v-5.092c0.36-0.061,0.865-0.107,1.578-0.107 c0.719,0,1.233,0.139,1.577,0.414c0.33,0.261,0.552,0.689,0.552,1.194C10.5,12.514,10.331,12.943,10.024,13.234z M15.502,15.6 h-1.164v-2.16h-1.921v2.16h-1.172v-5.161h1.172v1.983h1.921v-1.983h1.164V15.6z M19.755,13.234 c-0.397,0.375-0.987,0.543-1.677,0.543c-0.152,0-0.291-0.008-0.398-0.023V15.6h-1.155v-5.092c0.359-0.061,0.864-0.107,1.577-0.107 c0.72,0,1.232,0.139,1.577,0.414c0.33,0.261,0.552,0.689,0.552,1.194C20.23,12.514,20.062,12.943,19.755,13.234z"/>
		<path d="M8.432,11.281c-0.238,0-0.398,0.022-0.483,0.047v1.523c0.1,0.022,0.222,0.03,0.391,0.03c0.62,0,1.003-0.313,1.003-0.842 C9.343,11.565,9.014,11.281,8.432,11.281z"/>
	</symbol>

	<symbol id="icon-file-html" viewBox="0 0 126 126">
		<path d="M103.207,49.021h-2.449V37.203c0-0.074-0.012-0.148-0.021-0.223c-0.004-0.469-0.154-0.93-0.475-1.295L80.596,13.22 c-0.006-0.006-0.012-0.008-0.016-0.014c-0.117-0.131-0.254-0.24-0.398-0.334c-0.043-0.029-0.086-0.053-0.131-0.078 c-0.125-0.068-0.258-0.125-0.395-0.166c-0.037-0.01-0.07-0.025-0.107-0.035c-0.148-0.035-0.303-0.057-0.459-0.057H30.758 c-2.207,0-4,1.795-4,4v32.484h-2.449c-3.157,0-5.717,2.559-5.717,5.717v29.73c0,3.156,2.56,5.717,5.717,5.717h2.449v20.352 c0,2.205,1.793,4,4,4h66c2.205,0,4-1.795,4-4V90.185h2.449c3.157,0,5.717-2.561,5.717-5.717v-29.73 C108.924,51.58,106.364,49.021,103.207,49.021z M30.758,16.537H77.09v20.465c0,1.105,0.896,2,2,2h17.668v10.02h-66V16.537z M88.029,79.941h-4.834l-0.324-8.605c-0.098-2.703-0.195-5.97-0.195-9.24H82.58c-0.684,2.868-1.592,6.071-2.438,8.707l-2.658,8.771 h-3.861l-2.338-8.704c-0.713-2.635-1.461-5.838-1.98-8.773H69.24c-0.131,3.037-0.229,6.505-0.389,9.306l-0.391,8.54h-4.576 l1.395-22.481h6.588l2.143,7.504c0.684,2.602,1.363,5.404,1.852,8.04h0.096c0.619-2.603,1.363-5.57,2.078-8.072l2.336-7.472h6.459 L88.029,79.941z M45.061,61.729v-4.27h16.809v4.27H55.9v18.211h-4.967V61.729H45.061z M29.314,70.535v9.406h-4.963V57.459h4.963 v8.639h8.148v-8.639h4.934v22.481h-4.934v-9.406H29.314z M96.758,109.453h-66V90.185h66V109.453z M105.496,79.941H91.832V57.459 h4.965V75.67h8.699V79.941z"/>
	</symbol>

	<symbol id="icon-file-css" viewBox="0 0 126 126">
		<path d="M99.979,36.445c-0.004-0.469-0.154-0.93-0.475-1.295L79.838,12.686c-0.006-0.006-0.012-0.008-0.016-0.014 c-0.117-0.131-0.254-0.24-0.398-0.334c-0.043-0.029-0.086-0.053-0.131-0.078c-0.125-0.068-0.258-0.125-0.395-0.166 c-0.037-0.01-0.07-0.025-0.107-0.035c-0.148-0.035-0.303-0.057-0.459-0.057H30c-2.207,0-4,1.795-4,4v94c0,2.205,1.793,4,4,4h66 c2.205,0,4-1.795,4-4V36.668C100,36.594,99.988,36.52,99.979,36.445z M46.965,105.01c1.655,0,3.491-0.359,4.571-0.793l0.827,4.285 c-1.008,0.504-3.275,1.043-6.227,1.043c-8.387,0-12.707-5.219-12.707-12.131c0-8.279,5.904-12.887,13.247-12.887 c2.843,0,5.003,0.576,5.976,1.08l-1.116,4.355c-1.116-0.467-2.663-0.898-4.607-0.898c-4.355,0-7.739,2.627-7.739,8.025 C39.189,101.949,42.069,105.01,46.965,105.01z M61.904,109.545c-2.771,0-5.507-0.721-6.875-1.477l1.116-4.535 c1.476,0.756,3.743,1.512,6.083,1.512c2.52,0,3.852-1.043,3.852-2.627c0-1.512-1.152-2.375-4.067-3.42 c-4.031-1.404-6.659-3.635-6.659-7.162c0-4.141,3.455-7.309,9.18-7.309c2.734,0,4.75,0.576,6.19,1.225L69.5,90.18 c-0.973-0.469-2.699-1.152-5.076-1.152c-2.375,0-3.527,1.08-3.527,2.34c0,1.549,1.368,2.232,4.5,3.42 c4.283,1.584,6.299,3.814,6.299,7.234C71.695,106.09,68.564,109.545,61.904,109.545z M81.345,109.545 c-2.771,0-5.507-0.721-6.875-1.477l1.116-4.535c1.475,0.756,3.743,1.512,6.082,1.512c2.521,0,3.852-1.043,3.852-2.627 c0-1.512-1.151-2.375-4.066-3.42c-4.031-1.404-6.66-3.635-6.66-7.162c0-4.141,3.456-7.309,9.18-7.309 c2.735,0,4.751,0.576,6.191,1.225l-1.225,4.428c-0.972-0.469-2.699-1.152-5.075-1.152s-3.527,1.08-3.527,2.34 c0,1.549,1.368,2.232,4.499,3.42c4.283,1.584,6.3,3.814,6.3,7.234C91.136,106.09,88.004,109.545,81.345,109.545z M96,79.918H30 V16.002h46.332v20.465c0,1.105,0.896,2,2,2H96V79.918z"/>
		<path d="M49.195,40.719c0,1.225,0.176,2.402,0.351,3.625c0.175,1.219,0.349,2.441,0.349,3.664c0,1.529-0.436,3.23-3.535,3.23v2.227 c3.1,0,3.535,1.877,3.535,3.23c0,1.182-0.174,2.357-0.349,3.537s-0.351,2.398-0.351,3.578c0,4.408,2.707,5.982,6.331,5.982h0.917 v-2.402h-0.785c-2.445,0-3.45-1.354-3.45-3.797c0-1.047,0.132-2.053,0.306-3.146c0.175-1.045,0.306-2.135,0.306-3.314 c0.045-2.795-1.179-4.279-3.144-4.76v-0.084c1.965-0.527,3.188-1.924,3.144-4.717c0-1.178-0.131-2.227-0.306-3.316 c-0.174-1.049-0.306-2.098-0.306-3.1c0-2.357,0.872-3.754,3.45-3.754h0.785V35h-0.917C51.816,35,49.195,36.703,49.195,40.719z"/>
		<path d="M74.438,48.008c0-1.223,0.176-2.445,0.35-3.664c0.175-1.223,0.35-2.4,0.35-3.625c0-4.016-2.664-5.719-6.374-5.719H67.89 v2.402h0.786c2.533,0.043,3.449,1.396,3.449,3.754c0,1.002-0.176,2.051-0.305,3.1c-0.178,1.09-0.352,2.139-0.352,3.316 c0,2.793,1.223,4.189,3.145,4.717v0.084c-1.922,0.48-3.145,1.965-3.145,4.76c0,1.18,0.174,2.27,0.352,3.314 c0.129,1.094,0.305,2.1,0.305,3.146c0,2.443-1.049,3.754-3.492,3.797H67.89v2.402h0.917c3.58,0,6.33-1.574,6.33-5.982 c0-1.18-0.175-2.398-0.35-3.578c-0.174-1.18-0.35-2.355-0.35-3.537c0-1.354,0.438-3.23,3.537-3.23v-2.227 C74.875,51.238,74.438,49.537,74.438,48.008z"/>
	</symbol>

	<symbol id="icon-file-image" viewBox="0 -50 480 580">
		<path d="M160 144q0 20-14 34t-34 14-34-14-14-34 14-34 34-14 34 14 14 34zM416 240v112h-352v-48l80-80 40 40 128-128zM440 64h-400q-3.25 0-5.625 2.375t-2.375 5.625v304q0 3.25 2.375 5.625t5.625 2.375h400q3.25 0 5.625-2.375t2.375-5.625v-304q0-3.25-2.375-5.625t-5.625-2.375zM480 72v304q0 16.5-11.75 28.25t-28.25 11.75h-400q-16.5 0-28.25-11.75t-11.75-28.25v-304q0-16.5 11.75-28.25t28.25-11.75h400q16.5 0 28.25 11.75t11.75 28.25z"></path>
	</symbol>

	<symbol id="icon-logo" viewBox="0 0 500 500">
		<path
		   style="fill:#888"
		   d="M 47.125,57.25 C 22.338454,58.24281 3.1531238,84.97024 9.46875,108.90625 c 3.651679,19.87005 19.727083,33.92985 35.75,44.625 31.112478,23.22617 61.42959,48.26021 84.91742,79.45789 48.83766,61.65982 83.57111,136.18432 145.27008,186.88586 19.78732,16.56896 43.0558,30.47735 69.28125,32.5625 29.77084,3.50297 61.36756,2.40636 88.59078,-11.42906 20.39192,-10.08239 39.61916,-23.85774 53.76265,-41.79732 10.40592,-13.87009 13.17013,-35.30199 0.86532,-48.96112 -13.45094,-15.0338 -37.5336,-13.95169 -53.5625,-3.8125 -12.40095,7.47731 -22.47415,18.88569 -36.81388,23.03175 -19.669,7.71947 -42.29283,3.69645 -60.1821,-6.80432 C 314.69498,349.86172 298.94661,326.60687 293.55376,301.28405 289.31077,284.43463 288.2021,266.90353 288.21875,249.5 220.95611,188.85179 155.05334,126.57653 84.03125,70.3125 73.201373,62.80908 60.648153,56.5678 47.125,57.25 z" />
		<path
		   style="fill:#f90"
		   d="m 363.96875,57.21875 c -27.77768,0.20726 -56.22413,7.55565 -77.74903,25.67805 -57.54071,41.68933 -92.41485,105.39898 -132.29743,162.83019 -27.05321,39.00925 -58.305874,75.30284 -97.171688,102.87795 -16.134959,12.46891 -35.513492,23.67211 -44.281852,42.86381 -8.7455466,19.25771 -3.647333,45.33352 15.3125,56.34375 14.986775,9.41362 35.170271,7.35156 49.224572,-2.85659 22.062566,-13.38617 39.781138,-32.35582 60.097858,-48.10591 51.23289,-43.9522 100.71606,-89.91191 150.80257,-135.19375 -0.22009,-33.36941 4.52565,-69.51601 27.19561,-95.49741 20.0466,-22.26547 53.20169,-35.30993 82.27314,-24.47134 21.08174,7.01879 35.04931,28.90917 58.21875,30.375 17.35021,2.47216 37.05091,-8.52234 39.5,-26.8125 3.49868,-19.0779 -8.38733,-37.01655 -22.625,-48.4375 -26.81424,-24.38105 -62.25032,-40.86873 -99.09375,-39.625 -3.13578,0.0429 -6.27069,-0.017 -9.40625,0.0312 z" />
		<path
		   style="fill:#888"
		   d="m 215.125,225.125 c -19.63303,-0.2812 -33.52492,24.3961 -23.3125,41.125 8.38002,16.73762 34.77205,19.57166 46.09375,4.375 11.50447,-13.55536 6.09634,-37.48037 -11.0625,-43.46875 -3.69459,-1.5142 -7.7107,-2.25296 -11.71875,-2.03125 z" />
	</symbol>
</svg>